HIERARCHY
ROOT Hips
{
  OFFSET 0.0000 0.0000 0.0000
  CHANNELS 6 Xposition Yposition Zposition Zrotation Xrotation Yrotation
  JOINT Chest
  {
    OFFSET -0.1728 10.2870 0.1254
    CHANNELS 3 Zrotation Xrotation Yrotation
    JOINT Chest2
    {
      OFFSET 0.3229 15.8173 -2.6440
      CHANNELS 3 Zrotation Xrotation Yrotation
      JOINT LeftCollar
      {
        OFFSET -0.0683 16.8828 0.2989
        CHANNELS 3 Zrotation Xrotation Yrotation
        JOINT LeftShoulder
        {
          OFFSET 16.0110 -3.0750 2.0528
          CHANNELS 3 Zrotation Xrotation Yrotation
          JOINT LeftElbow
          {
            OFFSET 2.6153 -25.4187 1.7231
            CHANNELS 3 Zrotation Xrotation Yrotation
            JOINT LeftWrist
            {
              OFFSET 2.3595 -22.4741 1.0488
              CHANNELS 3 Zrotation Xrotation Yrotation
              End Site
              {
                  OFFSET 2.1900 -14.0561 0.4357
              }
            }
          }
        }
      }
      JOINT RightCollar
      {
        OFFSET -0.0683 16.8828 0.2989
        CHANNELS 3 Zrotation Xrotation Yrotation
        JOINT RightShoulder
        {
          OFFSET -16.3743 -2.4390 2.0841
          CHANNELS 3 Zrotation Xrotation Yrotation
          JOINT RightElbow
          {
            OFFSET -2.6865 -25.0857 1.2959
            CHANNELS 3 Zrotation Xrotation Yrotation
            JOINT RightWrist
            {
              OFFSET -2.3810 -22.8348 1.0329
              CHANNELS 3 Zrotation Xrotation Yrotation
              End Site
              {
                  OFFSET -1.7327 -14.7716 2.0390
              }
            }
          }
        }
      }
      JOINT Neck
      {
        OFFSET -0.0683 16.8828 0.2989
        CHANNELS 3 Zrotation Xrotation Yrotation
        JOINT Head
        {
          OFFSET 0.1300 11.4121 4.7143
          CHANNELS 3 Zrotation Xrotation Yrotation
          End Site
          {
              OFFSET 0.7676 18.0170 1.0373
          }
        }
      }
    }
  }
  JOINT LeftHip
  {
    OFFSET 9.3186 -0.0408 3.5432
    CHANNELS 3 Zrotation Xrotation Yrotation
    JOINT LeftKnee
    {
      OFFSET -0.5435 -48.8357 0.3144
      CHANNELS 3 Zrotation Xrotation Yrotation
      JOINT LeftAnkle
      {
        OFFSET 0.2027 -38.4920 -4.2946
        CHANNELS 3 Zrotation Xrotation Yrotation
        End Site
        {
            OFFSET 2.0625 -7.4590 18.3031
        }
      }
    }
  }
  JOINT RightHip
  {
    OFFSET -10.0712 -0.0749 3.1483
    CHANNELS 3 Zrotation Xrotation Yrotation
    JOINT RightKnee
    {
      OFFSET 0.3157 -48.5179 0.1055
      CHANNELS 3 Zrotation Xrotation Yrotation
      JOINT RightAnkle
      {
        OFFSET -1.1248 -38.4399 -3.4305
        CHANNELS 3 Zrotation Xrotation Yrotation
        End Site
        {
            OFFSET -0.5240 -7.4169 17.9784
        }
      }
    }
  }
}
MOTION
Frames:	33
Frame Time:	0.033333
-2.8894 96.8025 214.6547 -7.17 8.20 -136.05 1.10 14.33 -0.57 1.13 14.30 -0.54 -0.18 -0.70 0.26 18.85 -13.36 -60.65 9.34 -21.50 -2.23 -8.04 -0.78 -6.52 -0.01 -0.80 0.01 -20.72 -13.43 68.73 -13.86 -15.12 3.32 1.97 -1.77 -9.43 -0.33 -13.16 5.46 -0.80 -5.87 5.39 0.92 11.30 -8.45 0.11 0.43 0.02 0.24 -0.85 3.83 0.40 10.54 0.76 0.07 2.92 0.02 3.23 -2.25 1.54 
-2.8993 96.7853 214.6103 -7.24 8.29 -135.91 1.13 14.39 -0.58 1.16 14.36 -0.56 -0.18 -0.70 0.26 18.76 -13.40 -60.69 9.34 -21.33 -2.22 -8.24 -0.90 -6.95 -0.01 -0.80 0.01 -20.58 -13.50 68.86 -13.86 -14.90 3.32 1.82 -2.01 -10.00 -0.31 -13.09 5.39 -0.77 -5.80 5.32 0.98 11.42 -8.43 0.11 0.42 0.02 0.24 -0.89 3.65 0.45 10.67 0.73 0.07 2.96 0.03 3.21 -2.32 1.37 
-2.9161 96.7760 214.5856 -7.26 8.29 -135.71 1.15 14.39 -0.59 1.17 14.37 -0.57 -0.18 -0.70 0.26 18.68 -13.41 -60.74 9.34 -21.31 -2.22 -8.27 -0.79 -7.04 -0.01 -0.80 0.01 -20.56 -13.52 68.85 -13.86 -14.97 3.32 1.89 -1.92 -10.15 -0.29 -13.04 5.31 -0.74 -5.75 5.24 1.00 11.44 -8.58 0.11 0.42 0.02 0.24 -0.91 3.59 0.47 10.72 0.62 0.07 2.96 0.03 3.21 -2.37 1.26 
-2.9331 96.7720 214.5719 -7.27 8.25 -135.50 1.16 14.39 -0.61 1.19 14.36 -0.59 -0.18 -0.70 0.26 18.62 -13.40 -60.76 9.34 -21.30 -2.22 -8.25 -0.72 -7.00 -0.01 -0.80 0.01 -20.55 -13.55 68.86 -13.86 -15.10 3.32 2.05 -1.78 -10.15 -0.27 -12.99 5.23 -0.72 -5.70 5.17 1.00 11.39 -8.82 0.11 0.42 0.02 0.24 -0.92 3.59 0.48 10.74 0.49 0.08 2.96 0.04 3.21 -2.42 1.17 
-2.9407 96.7713 214.5586 -7.26 8.20 -135.30 1.19 14.38 -0.64 1.21 14.35 -0.62 -0.18 -0.70 0.26 18.56 -13.40 -60.72 9.34 -21.22 -2.22 -8.21 -0.83 -6.98 -0.01 -0.80 0.01 -20.57 -13.58 68.98 -13.85 -15.20 3.33 2.20 -1.70 -10.17 -0.26 -12.93 5.15 -0.69 -5.64 5.08 1.01 11.34 -9.05 0.11 0.42 0.02 0.24 -0.93 3.60 0.49 10.74 0.39 0.08 2.96 0.04 3.20 -2.45 1.08 
-2.9321 96.7724 214.5340 -7.24 8.14 -135.12 1.21 14.35 -0.67 1.24 14.33 -0.65 -0.18 -0.70 0.26 18.51 -13.39 -60.62 9.35 -21.16 -2.22 -8.20 -0.98 -7.17 -0.01 -0.80 0.01 -20.63 -13.60 69.24 -13.85 -15.22 3.33 2.22 -1.68 -10.36 -0.24 -12.85 5.05 -0.66 -5.56 4.99 1.02 11.29 -9.23 0.11 0.43 0.02 0.24 -0.94 3.61 0.50 10.74 0.33 0.08 2.93 0.04 3.19 -2.48 0.97 
-2.9128 96.7739 214.4906 -7.23 8.10 -134.97 1.23 14.32 -0.69 1.26 14.29 -0.67 -0.18 -0.70 0.26 18.49 -13.38 -60.47 9.35 -21.09 -2.21 -8.22 -1.05 -7.55 -0.01 -0.80 0.01 -20.70 -13.60 69.51 -13.85 -15.24 3.33 2.17 -1.66 -10.67 -0.22 -12.76 4.96 -0.63 -5.47 4.90 1.05 11.26 -9.35 0.11 0.42 0.02 0.24 -0.94 3.61 0.54 10.76 0.29 0.08 2.87 0.04 3.16 -2.49 0.85 
-2.8998 96.7737 214.4300 -7.23 8.08 -134.84 1.24 14.28 -0.69 1.26 14.26 -0.67 -0.18 -0.70 0.26 18.48 -13.37 -60.32 9.35 -21.16 -2.22 -8.25 -0.90 -8.03 -0.01 -0.80 0.01 -20.77 -13.58 69.75 -13.85 -15.21 3.33 2.02 -1.62 -11.07 -0.21 -12.66 4.87 -0.61 -5.36 4.82 1.09 11.26 -9.41 0.11 0.42 0.02 0.24 -0.94 3.58 0.59 10.81 0.27 0.08 2.79 0.04 3.13 -2.49 0.73 
-2.9061 96.7706 214.3636 -7.24 8.08 -134.72 1.23 14.26 -0.67 1.26 14.23 -0.65 -0.18 -0.70 0.26 18.45 -13.35 -60.22 9.34 -21.22 -2.22 -8.28 -0.66 -8.41 -0.01 -0.80 0.01 -20.83 -13.54 69.82 -13.85 -15.19 3.33 1.92 -1.57 -11.34 -0.22 -12.55 4.79 -0.61 -5.25 4.74 1.14 11.28 -9.48 0.11 0.40 0.02 0.24 -0.95 3.52 0.64 10.90 0.23 0.08 2.70 0.04 3.11 -2.49 0.64 
-2.9278 96.7657 214.3067 -7.25 8.09 -134.60 1.24 14.23 -0.65 1.27 14.20 -0.63 -0.18 -0.70 0.26 18.40 -13.33 -60.16 9.34 -21.34 -2.22 -8.30 -0.38 -8.64 -0.01 -0.80 0.01 -20.88 -13.51 69.70 -13.85 -15.16 3.33 1.81 -1.55 -11.46 -0.25 -12.44 4.73 -0.63 -5.14 4.68 1.18 11.32 -9.54 0.11 0.39 0.02 0.24 -0.96 3.48 0.68 11.00 0.15 0.07 2.59 0.04 3.09 -2.48 0.60 
-2.9498 96.7616 214.2696 -7.27 8.11 -134.48 1.26 14.22 -0.63 1.29 14.19 -0.61 -0.18 -0.70 0.26 18.31 -13.32 -60.15 9.34 -21.29 -2.22 -8.28 -0.32 -8.75 -0.01 -0.80 0.01 -20.90 -13.51 69.45 -13.85 -15.13 3.33 1.82 -1.48 -11.33 -0.29 -12.34 4.68 -0.67 -5.04 4.63 1.21 11.35 -9.60 0.11 0.37 0.02 0.24 -0.99 3.45 0.71 11.12 0.03 0.07 2.49 0.04 3.08 -2.47 0.58 
-2.9632 96.7604 214.2509 -7.30 8.12 -134.38 1.30 14.21 -0.63 1.33 14.18 -0.61 -0.18 -0.70 0.26 18.18 -13.30 -60.07 9.34 -21.22 -2.22 -8.25 -0.41 -8.89 -0.01 -0.80 0.01 -20.92 -13.55 69.22 -13.86 -15.12 3.32 1.83 -1.42 -11.17 -0.35 -12.24 4.63 -0.72 -4.95 4.59 1.22 11.39 -9.66 0.11 0.35 0.01 0.24 -1.01 3.42 0.71 11.21 -0.08 0.07 2.41 0.04 3.08 -2.46 0.58 
-2.9736 96.7618 214.2375 -7.35 8.13 -134.31 1.35 14.22 -0.65 1.38 14.19 -0.62 -0.18 -0.70 0.26 18.03 -13.28 -59.98 9.35 -21.06 -2.21 -8.20 -0.59 -9.05 -0.01 -0.80 0.01 -20.92 -13.60 69.01 -13.86 -15.12 3.32 1.92 -1.31 -11.08 -0.39 -12.15 4.58 -0.76 -4.86 4.54 1.21 11.43 -9.70 0.11 0.32 0.01 0.24 -1.01 3.40 0.70 11.29 -0.17 0.07 2.37 0.05 3.08 -2.44 0.60 
-2.9924 96.7641 214.2120 -7.43 8.13 -134.27 1.38 14.24 -0.66 1.41 14.21 -0.64 -0.18 -0.70 0.26 17.89 -13.25 -59.82 9.35 -20.98 -2.21 -8.18 -0.64 -9.15 -0.01 -0.80 0.01 -20.91 -13.64 68.88 -13.85 -15.14 3.33 1.99 -1.29 -11.24 -0.41 -12.06 4.51 -0.77 -4.76 4.47 1.18 11.51 -9.73 0.11 0.26 0.01 0.24 -0.94 3.37 0.66 11.37 -0.21 0.07 2.37 0.04 3.08 -2.48 0.62 
-3.0235 96.7646 214.1613 -7.55 8.15 -134.24 1.38 14.31 -0.66 1.40 14.28 -0.64 -0.18 -0.70 0.26 17.83 -13.22 -59.78 9.35 -20.91 -2.21 -8.14 -0.58 -8.96 -0.01 -0.80 0.01 -20.87 -13.65 68.77 -13.85 -15.16 3.33 2.11 -1.26 -11.54 -0.41 -11.95 4.41 -0.75 -4.65 4.38 1.12 11.65 -9.72 0.11 0.18 0.01 0.24 -0.84 3.35 0.60 11.48 -0.20 0.07 2.44 0.04 3.07 -2.56 0.61 
-3.0605 96.7613 214.0839 -7.71 8.20 -134.21 1.34 14.38 -0.64 1.37 14.35 -0.62 -0.18 -0.70 0.26 17.86 -13.16 -59.81 9.35 -21.00 -2.21 -8.15 -0.43 -8.52 -0.01 -0.80 0.01 -20.80 -13.62 68.69 -13.85 -15.17 3.33 2.24 -1.30 -11.98 -0.38 -11.82 4.28 -0.71 -4.52 4.25 1.06 11.88 -9.67 0.11 0.08 0.00 0.24 -0.74 3.30 0.55 11.63 -0.16 0.07 2.55 0.04 3.05 -2.66 0.56 
-3.0944 96.7527 213.9880 -7.90 8.27 -134.19 1.28 14.45 -0.61 1.31 14.43 -0.59 -0.18 -0.70 0.26 17.97 -13.15 -59.97 9.35 -21.08 -2.21 -8.16 -0.34 -7.92 -0.01 -0.80 0.01 -20.72 -13.57 68.58 -13.85 -15.15 3.33 2.40 -1.28 -12.33 -0.33 -11.67 4.13 -0.64 -4.37 4.10 1.02 12.19 -9.57 0.11 -0.02 -0.00 0.24 -0.66 3.22 0.51 11.83 -0.06 0.07 2.66 0.04 3.01 -2.79 0.46 
-3.1225 96.7392 213.8873 -8.09 8.36 -134.15 1.23 14.53 -0.58 1.25 14.50 -0.56 -0.18 -0.70 0.26 18.08 -13.15 -60.11 9.35 -21.17 -2.22 -8.17 -0.32 -7.42 -0.01 -0.80 0.01 -20.64 -13.51 68.51 -13.86 -15.07 3.32 2.55 -1.26 -12.69 -0.28 -11.52 3.98 -0.57 -4.22 3.95 0.99 12.50 -9.45 0.11 -0.10 -0.00 0.24 -0.61 3.09 0.49 12.03 0.08 0.06 2.78 0.04 2.97 -2.93 0.30 
-3.1496 96.7227 213.7958 -8.27 8.45 -134.10 1.18 14.60 -0.55 1.21 14.58 -0.53 -0.18 -0.70 0.26 18.17 -13.18 -60.23 9.35 -21.21 -2.22 -8.12 -0.40 -7.08 -0.01 -0.80 0.01 -20.57 -13.44 68.40 -13.86 -15.02 3.32 2.65 -1.22 -12.82 -0.23 -11.38 3.85 -0.51 -4.08 3.82 0.98 12.78 -9.29 0.11 -0.14 -0.01 0.24 -0.57 2.91 0.49 12.22 0.24 0.06 2.93 0.03 2.93 -3.08 0.12 
-3.1838 96.7065 213.7234 -8.43 8.53 -134.04 1.14 14.68 -0.53 1.17 14.65 -0.51 -0.18 -0.70 0.26 18.23 -13.23 -60.29 9.34 -21.25 -2.22 -8.04 -0.55 -6.98 -0.01 -0.80 0.01 -20.53 -13.39 68.36 -13.86 -14.96 3.32 2.66 -1.25 -12.78 -0.19 -11.27 3.76 -0.45 -3.96 3.74 0.96 12.99 -9.10 0.11 -0.17 -0.01 0.24 -0.56 2.67 0.49 12.39 0.40 0.06 3.07 0.03 2.90 -3.23 -0.07 
-3.2297 96.6929 213.6704 -8.57 8.60 -133.95 1.10 14.75 -0.51 1.13 14.72 -0.49 -0.18 -0.70 0.26 18.26 -13.28 -60.33 9.34 -21.27 -2.22 -7.96 -0.74 -7.02 -0.01 -0.80 0.01 -20.51 -13.34 68.29 -13.86 -14.93 3.32 2.58 -1.32 -12.39 -0.15 -11.18 3.70 -0.41 -3.88 3.68 0.93 13.12 -8.84 0.11 -0.13 -0.01 0.24 -0.57 2.37 0.46 12.52 0.46 0.06 3.21 0.03 2.89 -3.37 -0.18 
-3.2876 96.6818 213.6265 -8.72 8.65 -133.84 1.07 14.82 -0.51 1.10 14.79 -0.49 -0.18 -0.70 0.26 18.27 -13.32 -60.32 9.34 -21.28 -2.22 -7.97 -0.88 -7.17 -0.01 -0.80 0.01 -20.56 -13.30 68.39 -13.87 -14.86 3.32 2.46 -1.44 -11.87 -0.12 -11.12 3.68 -0.38 -3.81 3.65 0.88 13.20 -8.60 0.11 0.01 0.00 0.24 -0.58 2.04 0.40 12.66 0.39 0.06 3.32 0.03 2.88 -3.50 -0.24 
-3.3565 96.6706 213.5777 -8.86 8.69 -133.70 1.04 14.88 -0.52 1.07 14.86 -0.50 -0.18 -0.70 0.26 18.30 -13.36 -60.31 9.34 -21.28 -2.22 -8.04 -0.93 -7.27 -0.01 -0.80 0.01 -20.60 -13.26 68.46 -13.87 -14.83 3.32 2.36 -1.56 -11.29 -0.10 -11.06 3.65 -0.35 -3.76 3.63 0.83 13.29 -8.42 0.11 0.18 0.01 0.24 -0.61 1.76 0.34 12.82 0.23 0.07 3.38 0.03 2.90 -3.61 -0.19 
-3.4363 96.6570 213.5167 -9.01 8.75 -133.55 1.02 14.96 -0.54 1.05 14.93 -0.52 -0.18 -0.70 0.26 18.32 -13.38 -60.29 9.34 -21.35 -2.22 -8.12 -0.87 -7.29 -0.01 -0.80 0.01 -20.67 -13.25 68.62 -13.87 -14.79 3.32 2.33 -1.67 -10.95 -0.09 -11.03 3.64 -0.34 -3.73 3.62 0.80 13.42 -8.39 0.11 0.35 0.01 0.24 -0.65 1.53 0.30 13.06 0.01 0.07 3.42 0.03 2.92 -3.70 -0.13 
-3.5270 96.6406 213.4470 -9.15 8.84 -133.40 1.01 15.03 -0.55 1.04 15.00 -0.53 -0.18 -0.70 0.26 18.38 -13.35 -60.33 9.34 -21.39 -2.23 -8.09 -0.81 -7.18 -0.01 -0.80 0.01 -20.69 -13.25 68.60 -13.87 -14.79 3.32 2.40 -1.74 -10.81 -0.09 -10.98 3.59 -0.33 -3.67 3.57 0.79 13.58 -8.41 0.11 0.48 0.02 0.24 -0.74 1.42 0.28 13.33 -0.19 0.07 3.38 0.03 2.94 -3.76 -0.05 
-3.6258 96.6233 213.3762 -9.27 8.95 -133.27 1.02 15.10 -0.56 1.04 15.07 -0.54 -0.18 -0.70 0.26 18.39 -13.30 -60.36 9.34 -21.44 -2.23 -7.96 -0.75 -7.02 -0.01 -0.80 0.01 -20.73 -13.27 68.50 -13.87 -14.83 3.32 2.52 -1.79 -10.85 -0.09 -10.94 3.54 -0.33 -3.64 3.52 0.80 13.76 -8.46 0.11 0.60 0.03 0.24 -0.85 1.38 0.28 13.63 -0.39 0.07 3.29 0.04 2.96 -3.78 0.03 
-3.7269 96.6075 213.3084 -9.36 9.07 -133.17 1.03 15.14 -0.56 1.05 15.11 -0.54 -0.18 -0.70 0.26 18.38 -13.24 -60.44 9.34 -21.46 -2.23 -7.79 -0.76 -6.83 -0.01 -0.80 0.01 -20.72 -13.28 68.25 -13.86 -14.92 3.32 2.63 -1.82 -10.84 -0.09 -10.93 3.50 -0.33 -3.62 3.48 0.82 13.95 -8.50 0.11 0.68 0.03 0.24 -0.96 1.34 0.30 13.95 -0.56 0.08 3.09 0.04 2.98 -3.76 0.13 
-3.8237 96.5936 213.2420 -9.43 9.19 -133.11 1.04 15.18 -0.55 1.07 15.15 -0.53 -0.18 -0.70 0.26 18.34 -13.17 -60.47 9.34 -21.43 -2.23 -7.69 -0.78 -6.77 -0.01 -0.80 0.01 -20.73 -13.30 68.06 -13.86 -15.00 3.32 2.68 -1.82 -10.69 -0.10 -10.91 3.44 -0.33 -3.60 3.43 0.86 14.18 -8.64 0.11 0.66 0.03 0.24 -1.03 1.42 0.33 14.27 -0.72 0.08 2.87 0.05 3.00 -3.72 0.23 
-3.9114 96.5803 213.1733 -9.47 9.31 -133.08 1.06 15.22 -0.54 1.09 15.20 -0.52 -0.18 -0.70 0.26 18.29 -13.08 -60.43 9.34 -21.37 -2.23 -7.71 -0.85 -6.91 -0.01 -0.80 0.01 -20.73 -13.31 67.99 -13.86 -15.07 3.32 2.66 -1.78 -10.41 -0.10 -10.87 3.39 -0.32 -3.56 3.37 0.93 14.49 -8.95 0.11 0.38 0.02 0.24 -1.01 1.74 0.38 14.57 -0.83 0.08 2.62 0.05 3.02 -3.66 0.32 
-3.9882 96.5656 213.1027 -9.47 9.41 -133.08 1.08 15.26 -0.52 1.10 15.23 -0.50 -0.18 -0.70 0.26 18.20 -12.98 -60.22 9.34 -21.32 -2.22 -7.89 -0.84 -7.32 -0.01 -0.80 0.01 -20.76 -13.33 68.10 -13.86 -15.11 3.32 2.62 -1.71 -10.14 -0.11 -10.82 3.35 -0.32 -3.51 3.34 1.02 14.85 -9.44 0.11 -0.12 -0.01 0.24 -0.90 2.27 0.45 14.80 -0.86 0.09 2.44 0.05 3.03 -3.63 0.37 
-4.0575 96.5492 213.0376 -9.44 9.48 -133.08 1.09 15.28 -0.50 1.12 15.25 -0.48 -0.18 -0.70 0.26 18.13 -12.88 -60.02 9.34 -21.28 -2.22 -8.10 -0.82 -7.80 -0.01 -0.80 0.01 -20.79 -13.34 68.29 -13.85 -15.15 3.33 2.57 -1.64 -10.05 -0.11 -10.75 3.34 -0.32 -3.45 3.33 1.13 15.22 -9.95 0.11 -0.75 -0.03 0.24 -0.77 2.86 0.52 14.93 -0.81 0.09 2.32 0.05 3.03 -3.61 0.39 
-4.1295 96.5338 212.9889 -9.39 9.50 -133.07 1.12 15.27 -0.48 1.14 15.24 -0.46 -0.18 -0.70 0.26 18.07 -12.79 -59.82 9.34 -21.23 -2.22 -8.30 -0.80 -8.26 -0.01 -0.80 0.01 -20.80 -13.35 68.42 -13.85 -15.18 3.33 2.57 -1.58 -10.18 -0.10 -10.69 3.35 -0.32 -3.38 3.33 1.19 15.43 -10.31 0.11 -1.18 -0.05 0.24 -0.70 3.28 0.56 14.96 -0.77 0.09 2.30 0.04 3.05 -3.65 0.38 
-4.2192 96.5227 212.9620 -9.34 9.47 -133.03 1.14 15.20 -0.47 1.16 15.18 -0.45 -0.18 -0.70 0.26 18.03 -12.70 -59.75 9.35 -21.19 -2.22 -8.39 -0.90 -8.53 -0.01 -0.80 0.01 -20.81 -13.35 68.51 -13.85 -15.18 3.33 2.60 -1.59 -10.52 -0.10 -10.61 3.37 -0.31 -3.31 3.35 1.20 15.46 -10.40 0.11 -1.29 -0.05 0.24 -0.74 3.37 0.56 14.93 -0.79 0.09 2.31 0.04 3.08 -3.73 0.37 
